<?xml version="1.0" standalone="no"?>
<!DOCTYPE svg PUBLIC "-//W3C//DTD SVG 1.1//EN" "http://www.w3.org/Graphics/SVG/1.1/DTD/svg11.dtd" >
<svg xmlns="http://www.w3.org/2000/svg">
<metadata>Generated by IcoMoon</metadata>
<defs>
<font id="IBK-Icons" horiz-adv-x="1024">
<font-face units-per-em="1024" ascent="960" descent="-64" />
<missing-glyph horiz-adv-x="1024" />
<glyph unicode="&#x20;" horiz-adv-x="512" d="" />
<glyph unicode="&#xe900;" glyph-name="arrow-before" d="M755.2 167.040l-300.64 293.76 300.64 293.76-46.272 45.12c-25.568 24.928-66.336 25.536-92.224 0.32l-347.904-339.2 347.904-339.2c25.376-24.736 66.496-24.768 92.224 0.32l46.272 45.12z" />
<glyph unicode="&#xe901;" glyph-name="arrow-down" d="M805.76 704l-293.76-300.64-293.76 300.64-45.12-46.272c-24.928-25.568-25.536-66.336-0.32-92.224l339.2-347.904 339.2 347.904c24.736 25.376 24.768 66.496-0.32 92.224l-45.12 46.272z" />
<glyph unicode="&#xe902;" glyph-name="arrow-next" d="M268.8 167.040l300.64 293.76-300.64 293.76 46.272 45.12c25.568 24.928 66.336 25.536 92.224 0.32l347.904-339.2-347.904-339.2c-25.376-24.736-66.496-24.768-92.224 0.32l-46.272 45.12z" />
<glyph unicode="&#xe903;" glyph-name="arrow-up" d="M218.24 217.6l293.76 300.64 293.76-300.64 45.12 46.272c24.928 25.568 25.536 66.336 0.32 92.224l-339.2 347.904-339.2-347.904c-24.736-25.376-24.768-66.496 0.32-92.224l45.12-46.272z" />
<glyph unicode="&#xe904;" glyph-name="calendar" d="M298.656 917.344v-85.344h426.656v85.344h85.344v-85.344h42.656c44.16 0 80.8-34.016 84.928-77.152l0.384-8.192v-682.656c0-44.16-34.016-80.8-77.152-84.928l-8.192-0.384h-682.656c-44.16 0-80.8 34.016-84.928 77.152l-0.384 8.192v682.656c0 44.16 34.016 80.8 77.152 84.928l8.192 0.384h42.656v85.344h85.344zM853.344 618.656h-682.656v-554.656h682.656v554.656z" />
<glyph unicode="&#xe905;" glyph-name="card" d="M95.136 777.152h0.064v54.848l845.92-0.48c47.776-4.992 82.88-48.864 82.88-95.040v0-580.224l-0.448-8.992c-4.576-47.328-44.896-83.264-94.752-83.264v0l-842.848 0.416c-48.576 4.384-85.952 43.232-85.952 91.84v0 580.224l0.416 8.768c4.384 46.4 43.264 86.752 94.784 86.752h-0.096l0.032-54.848zM932.032 777.152h-836.832c-22.816 0-40.512-19.264-40.512-40.64v0-580.224l0.48-5.824c2.816-17.184 17.952-31.584 40.032-31.584v0h833.6c24.544 0 40.512 17.76 40.512 37.408v0 580.224l-0.544 6.56c-3.168 19.2-19.872 34.112-36.768 34.112v0zM845.088 286.176c9.664 0 16.128-9.728 16.128-16.224 0-9.728-6.464-16.224-16.128-16.224v0h-678.592c-9.664 0-16.128 6.464-16.128 16.224 0 9.696 6.464 16.192 16.128 16.192v0zM328.096 607.072c6.464 0 12.928-6.464 12.928-12.96v-132.896c3.232-6.496-3.232-12.96-12.928-12.96v0.032h-164.768c-6.912 0.448-12.448 5.984-12.928 12.928v132.928c0 6.496 6.464 12.96 12.928 12.96h164.768z" />
<glyph unicode="&#xe906;" glyph-name="check-circle" d="M0 448c0-282.624 229.376-512 512-512s512 229.376 512 512c0 282.624-229.376 512-512 512s-512-229.376-512-512zM205.504 424.48c-7.456 7.296-6.976 19.616 0.16 26.56l43.552 42.56c7.552 7.392 19.68 7.52 27.84-0.448l166.368-162.112 368.096 359.68c7.488 7.328 20.128 6.848 27.264-0.192l43.552-42.88c7.552-7.424 7.264-19.712-0.384-27.168l-424.48-414.784c-7.744-7.584-20.256-7.648-27.552-0.512l-224.384 219.264z" />
<glyph unicode="&#xe907;" glyph-name="check" d="M13.888 427.488c-7.68 7.744-7.744 20.192-0.416 27.584l76.16 76.736c7.456 7.488 19.968 7.072 26.88 0.128l249.184-250.4 541.44 545.6c7.584 7.648 19.872 7.584 27.2 0.16l76.16-77.28c7.456-7.552 7.808-19.424-0.256-27.552l-630.784-635.616c-7.584-7.648-20.096-7.456-27.648 0.128l-337.92 340.544z" />
<glyph unicode="&#xe908;" glyph-name="close-circle" d="M512 960c-283.136 0-512-228.864-512-512s228.864-512 512-512c283.136 0 512 228.864 512 512s-228.864 512-512 512v0zM768 264.192l-72.192-72.192-183.808 183.808-183.808-183.808-72.192 72.192 183.808 183.808-183.808 183.808 72.192 72.192 183.808-183.808 183.808 183.808 72.192-72.192-183.808-183.808 183.808-183.808z" />
<glyph unicode="&#xe909;" glyph-name="close" d="M194.816 756.096l3.072 3.584c5.792 5.792 13.792 9.408 22.656 9.408 7.168 0 13.792-2.368 19.136-6.336l-0.096 0.064 3.584-3.104 268.832-268.8 268.8 268.8c5.792 5.792 13.792 9.408 22.656 9.408 7.168 0 13.792-2.368 19.136-6.336l-0.096 0.064 3.616-3.104c5.792-5.792 9.344-13.792 9.344-22.592 0-7.168-2.368-13.792-6.336-19.136l0.064 0.096-3.072-3.584-268.832-268.832 245.888-245.92c5.792-5.792 9.376-13.792 9.376-22.624 0-7.168-2.336-13.76-6.336-19.104l0.064 0.096-3.104-3.584c-5.792-5.792-13.792-9.376-22.624-9.376-7.168 0-13.76 2.336-19.104 6.336l0.096-0.064-3.616 3.104-245.888 245.888-245.888-245.888c-5.792-5.792-13.792-9.408-22.656-9.408-7.168 0-13.792 2.368-19.136 6.336l0.096-0.064-3.584 3.104c-5.792 5.792-9.376 13.792-9.376 22.624 0 7.168 2.336 13.76 6.336 19.104l-0.064-0.096 3.104 3.584 245.888 245.92-268.8 268.8c-5.792 5.792-9.408 13.792-9.408 22.656 0 7.168 2.368 13.792 6.336 19.136l-0.064-0.096z" />
<glyph unicode="&#xe90a;" glyph-name="home" d="M598.976 864.864c-49.376 41.216-121.088 41.536-170.848 0.768l-419.904-344.256c-6.208-5.056-9.248-13.056-7.936-20.96s6.72-14.496 14.24-17.312c7.488-2.816 15.936-1.376 22.080 3.744l75.744 62.016v-438.688c0-74.048 60.032-134.080 134.080-134.080h526.4c74.048 0 134.080 60.032 134.080 134.080v439.808l75.52-63.008c9.504-7.36 23.136-5.856 30.848 3.36s6.72 22.912-2.24 30.944l-412.096 343.584zM587.808 20.832h-156.416v210.624c0 43.52 35.264 78.784 78.784 78.784s78.784-35.264 78.784-78.784l-1.12-210.624zM861.664 110.208c0-49.376-40.032-89.376-89.376-89.376h-139.232v210.624c0 68.192-55.264 123.456-123.456 123.456s-123.456-55.264-123.456-123.456v-210.624h-139.68c-49.376 0-89.376 40.032-89.376 89.376v475.328l299.776 245.824c33.056 27.296 80.8 27.296 113.856 0l291.52-244.16-0.544-476.992zM407.68 560.512c0-12.352 10.016-22.336 22.336-22.336h159.232c12.352 0 22.336 10.016 22.336 22.336s-10.016 22.336-22.336 22.336h-159.232c-12.352 0-22.336-10.016-22.336-22.336z" />
<glyph unicode="&#xe90b;" glyph-name="informative" d="M577.28 611.2c0-35.36-28.64-64-64-64s-64 28.64-64 64c0 35.36 28.64 64 64 64s64-28.64 64-64zM464 446.72v-190.72c0-26.496 21.504-48 48-48s48 21.504 48 48v0 190.72c0 26.496-21.504 48-48 48s-48-21.504-48-48v0zM512 880c238.592 0 432-193.408 432-432s-193.408-432-432-432v0c-238.592 0-432 193.408-432 432s193.408 432 432 432v0zM512 784c-185.568 0-336-150.432-336-336s150.432-336 336-336v0c185.568 0 336 150.432 336 336s-150.432 336-336 336v0z" />
<glyph unicode="&#xe90c;" glyph-name="loading" d="M503.552 125.568c41.248 0 74.688-33.376 74.688-74.624 0-41.152-33.44-74.56-74.688-74.56-41.216 0-74.624 33.408-74.624 74.56 0 41.248 33.408 74.624 74.624 74.624zM275.744 207.648c33.312-33.248 33.312-87.232 0-120.512s-87.36-33.28-120.704 0c-33.312 33.28-33.312 87.264 0 120.512 33.344 33.312 87.392 33.312 120.704 0zM837.056 192.608c24.96-24.96 24.96-65.44 0-90.4-25.024-24.96-65.536-24.96-90.528 0-24.96 24.96-24.96 65.472 0 90.4 24.992 24.96 65.504 24.96 90.528 0zM96 531.232c53.024 0 96-42.976 96-95.904 0-52.992-42.976-95.904-96-95.904s-96 42.912-96 95.904c0 52.928 42.976 95.904 96 95.904zM911.136 488.608c29.472 0 53.376-23.84 53.376-53.28s-23.904-53.28-53.376-53.28c-29.44 0-53.312 23.84-53.312 53.28s23.872 53.28 53.312 53.28zM215.36 829.792c58.912 0 106.656-47.712 106.656-106.56s-47.744-106.528-106.656-106.528c-58.88 0-106.656 47.712-106.656 106.528s47.744 106.56 106.656 106.56zM795.872 769.92c23.584 0.032 42.688-19.072 42.688-42.592s-19.104-42.624-42.688-42.624c-23.52 0-42.656 19.072-42.656 42.624s19.136 42.592 42.656 42.592zM503.552 960c64.832 0 117.376-52.512 117.344-117.216 0-64.704-52.512-117.216-117.344-117.216-64.768 0-117.312 52.512-117.312 117.216s52.544 117.216 117.312 117.216z" />
<glyph unicode="&#xe90d;" glyph-name="money" d="M607.808 960l9.984-0.544c23.552-2.464 48.512-13.344 68.992-28.704 18.208-15.616 36.416-38.144 40.224-65.568l0.736-10.496-0.736-13.536c-3.808-35.808-22.016-69.024-40.224-97.632-20.48-29.248-40.96-55.584-67.296-79.008 64.352-64.352 128.736-146.272 175.552-231.136 49.728-90.688 84.832-184.32 81.92-269.152 0-49.728-8.768-93.632-29.248-125.792s-49.728-52.672-84.832-67.296c-32.192-14.624-73.152-20.48-114.112-23.392-32.768-2.336-69.28-2.816-106.528-2.912h-51.488c-86.080 0.16-172.576 1.952-236.928 23.392-35.104 14.624-67.296 35.104-90.688 67.296s-35.104 73.152-35.104 125.792c0 14.048 0 31.84 1.504 48.864l1.44 12.576 3.392 19.936c14.24 73.664 47.552 153.664 93.152 228.768 46.816 76.064 105.312 146.272 163.84 190.176-54.624 57.344-91.392 99.392-96.032 164.224l-0.512 14.24v14.624c0 55.424 42.016 100.352 96.192 104.928l9.152 0.384h207.712zM575.648 623.552h-143.36c-55.584-43.872-111.168-111.168-155.072-184.32-42.912-69.728-73.536-144.384-85.088-208.16l-2.688-17.12-1.44-10.24c-1.504-13.376-1.504-26.016-1.504-42.4 0-43.872 8.768-73.152 23.392-93.632s35.104-35.104 64.352-43.872c54.016-18.912 130.464-20.352 217.856-20.48h49.792c36.512 0.096 71.168 0.576 103.936 2.912 38.048 2.912 70.208 5.856 96.544 17.568 23.392 8.768 43.872 23.392 55.584 43.872 10.4 18.208 18.496 45.664 20.16 82.368l0.32 14.208 0.128 15.264c-1.472 67.072-29.824 145.856-73.28 224.64-46.816 79.008-108.256 157.984-169.696 219.424zM619.52 407.040c11.712 0 23.392-2.912 23.392-17.568 0-2.912 0-5.856-2.912-11.712v0l-73.152-231.136h-8.768c-11.712 0-23.392 2.912-23.392 14.624v0l0.032 2.24c0.128 2.336 0.672 5.088 2.88 9.472v0l73.152 234.048zM449.824 412.896c46.816 0 70.208-20.48 70.208-35.104s-17.568-26.336-20.48-23.392c-11.712 14.624-29.248 26.336-49.728 26.336-23.392 0-35.104-11.712-35.104-23.392 0-17.568 17.568-20.48 40.96-26.336 35.104-8.768 67.296-23.392 67.296-61.44s-29.248-64.352-79.008-64.352c-49.728 0-73.152 23.392-73.152 38.048s14.624 23.392 14.624 23.392c14.624-17.568 35.104-29.248 58.528-29.248s35.104 11.712 35.104 26.336c0 20.48-17.568 20.48-40.96 26.336-32.192 5.856-64.352 20.48-64.352 61.44 0 35.104 29.248 61.44 76.064 61.44zM186.88 214.464l1.888-0.384 0.672-0.128-2.56 0.512zM175.872 216.672l3.392-0.672-1.12 0.192-2.304 0.448zM168.384 218.176l2.528-0.544 2.656-0.48-5.184 1.024zM160.192 219.808l8.192-1.632-2.752 0.512-5.472 1.088zM604.896 910.272h-204.8c-21.6 0-43.2-19.936-46.4-52.928l-0.416-8.512 0.288-9.152c2.432-38.72 20.96-66.592 65.152-114.112l10.656-11.328h157.984c20.48 17.568 38.048 38.048 52.672 61.44 15.36 25.6 26.24 51.2 28.736 70.912l0.544 8.064v8.768l-0.352 2.848c-1.472 6.336-7.584 16.384-20.128 26.4-14.624 11.712-29.248 17.568-43.872 17.568zM181.568 215.552l-1.28 0.224-1.024 0.224 2.304-0.448z" />
<glyph unicode="&#xe90e;" glyph-name="pig" d="M351.616 820.288c9.984 12.48 27.488 14.976 42.464 7.488v0l79.936-47.456c12.48 2.496 24.96 2.496 37.472 2.496 37.472 0 72.416-4.992 107.392-12.48v0l18.912-4.416c75.296-19.296 145.344-57.44 198.368-110.464v0l8.128-8.224c5.728-5.92 11.84-12.576 16.832-19.232 2.496 2.496 7.488 2.496 9.984 4.992 9.984 7.488 19.968 7.488 29.984 7.488 7.488 7.488 12.48 17.472 22.464 19.968v0h2.496c29.984 12.48 62.432-2.496 74.912-32.48 2.496-2.496 0-9.984 0-14.976-4.992 0-9.984 0-12.48 7.488-7.488 19.968-32.48 29.984-52.448 19.968-2.496 0-7.488-4.992-9.984-7.488 4.992 0 4.992-2.496 7.488-2.496v0l4.992-4.992c0-4.992 2.496-4.992 2.496-7.488v0l7.488-2.496v-2.496c0-4.992 2.496-4.992 2.496-7.488 4.992-19.968 14.976-54.944-7.488-64.928-2.496-2.496-7.488-2.496-9.984-2.496-4.992 0-12.48 4.992-17.472 9.984 17.472-39.968 29.984-84.928 27.488-132.384v0l-0.416-16.512c-3.616-71.2-30.624-137.632-76.992-193.28v0l-67.424-174.816-3.264-6.304c-8.64-14.112-24.224-23.648-41.696-23.648v0h-74.912c-14.976 0-27.488 9.984-34.976 17.472-4.992 9.984-12.48 22.464-12.48 34.976v0 9.984c-34.976-7.488-77.408-12.48-114.88-12.48-27.488 0-54.944 2.496-79.936 7.488v0-2.496c0-14.976-9.984-27.488-17.472-34.976-7.488-9.984-19.968-17.472-34.976-17.472v0h-74.912c-19.968 0-37.472 12.48-44.96 29.984v0l-49.952 119.872c-42.464 37.472-77.44 79.936-99.904 132.384-24.96 9.984-42.464 17.472-52.448 22.464-4.992 2.496-9.984 2.496-12.48 4.992v0l-2.496 2.496-5.824 3.488c-10.528 7.552-14.496 18.272-16.64 28.96v0l-22.464 124.864-1.504 6.752c-3.232 22.208 10.816 41.632 28.96 50.688v0l2.496 2.496h2.496l12.48 2.592c8.32 1.856 16.64 4.064 24.96 7.392 22.464 7.488 44.96 19.968 59.936 39.968 44.96 74.912 119.872 134.88 209.792 164.832v0 42.464c-2.496 9.984 2.496 22.464 9.984 29.984zM294.176 41.056c-3.744 0-4.672 0-7.040-1.056l-2.976-1.44 9.984 2.496zM381.6 782.816v-67.424l-14.976-4.992c-84.928-29.984-157.344-87.424-199.808-157.344v0l-8.864-10.656c-21.6-23.552-49.216-38.048-71.072-46.784-12.48-4.992-24.96-7.488-32.48-9.984-4.992-2.496-7.488-2.496-9.984-2.496 0 0-2.496-2.496-2.496-2.496v0-2.496l22.464-124.864 4.352-0.736c2.592-0.928 4.8-2.592 8.128-4.256 19.968-9.984 39.968-17.472 59.936-24.96v0l9.984-2.496 4.992-9.984 8.896-18.4c21.856-42.112 51.36-78.72 88.512-111.488v0l4.992-2.496v-2.496l52.448-124.864h72.416l2.496 2.496c0 0 2.496 0 2.496 2.496v0 59.936l29.984-7.488 11.552-3.040c24.672-5.76 58.016-9.44 85.856-9.44 47.456 0 94.912 4.992 129.888 19.968v0l32.48 12.48v-72.416l4.992-4.992h72.416l67.424 177.312 4.992 4.992 9.984 12.288c38.304 49.824 57.472 108 57.472 172.544v0l0.288 13.408c-0.48 40.064-13.28 78.496-40.256 118.944-14.976 29.984-32.48 54.944-54.944 74.912v0l-13.472 12.224c-50.656 43.808-114.944 76.448-181.344 90.176-34.976 7.488-64.928 12.48-97.408 12.48-14.976 0-24.96 0-34.976-2.496v0l-9.984-2.496-7.488 4.992-69.92 42.464zM638.848 553.056c9.984 0 27.488-2.496 24.96-22.464 0-1.888 0-5.152-1.056-9.824l-1.44-5.152-89.92-287.232c0 0-7.488-2.496-9.984-2.496-9.984 2.496-24.96 7.488-24.96 22.464 0 1.888 0 5.152 1.056 9.824l1.44 5.152 89.92 287.232c0 0 7.488 2.496 9.984 2.496zM436.544 558.048c57.44 0 87.424-22.464 87.424-44.96 0-17.472-22.464-29.984-22.464-29.984-12.48 17.472-39.968 29.984-64.928 29.984-27.488 0-42.464-9.984-42.464-29.984 0-22.464 22.464-22.464 52.448-29.984 44.96-9.984 84.928-29.984 82.432-74.912 0-47.456-34.976-77.408-99.904-77.408-58.272 0-88.256 21.76-92 42.944l-0.384 4.512 0.864 6.304c3.872 14.112 19.424 23.648 21.6 23.648 14.976-17.472 39.968-32.48 69.92-32.48s44.96 9.984 44.96 29.984c0 22.464-27.488 24.96-52.448 32.48-39.968 9.984-77.44 22.464-77.44 74.912 0 44.96 34.976 74.912 92.416 74.912zM906.080 617.984v-17.472c0-4.992 2.496-4.992 2.496-7.488 7.488-19.968 19.968-32.48 22.464-29.984 7.488 2.496 4.992 22.464-2.496 37.472 0 4.992-2.496 4.992-2.496 7.488v0l-4.992 7.488-2.464 0.256c-2.624 0.544-3.040 1.76-5.024-0.256-4.992 0-4.992 2.496-7.488 2.496v0zM888.608 625.472c-4.992 0-9.984 0-12.48-2.496s-2.496-2.496-4.992-2.496c4.992-9.984 12.48-17.472 17.472-27.488v0zM618.592 769.088l-0.288-1.024c-0.864-3.648-2.656-11.296-4.448-20.192l0.288 1.248c1.056 4.704 4.704 21.248 4.704 21.248z" />
<glyph unicode="&#xe90f;" glyph-name="pipe" horiz-adv-x="64" d="M0 935.616v-975.264c0-13.472 11.456-24.384 25.6-24.384s25.6 10.912 25.6 24.384v975.264c-0.384 13.536-11.424 24.384-25.024 24.384-0.192 0-0.416 0-0.608 0h0.032c-14.144 0-25.6-10.912-25.6-24.384z" />
<glyph unicode="&#xe910;" glyph-name="reload" d="M878.336 395.84c0-0.16 0-0.32 0-0.48 0-207.328-163.584-376-366.656-376s-366.816 168.672-366.816 376c0 206.016 161.792 373.792 365.952 375.872v-68.672c0-39.456 34.56-40.48 53.728-22.88l140.928 107.2c0 0 15.36 13.088 15.36 27.488 0 15.136-15.616 27.488-15.616 27.488l-140.64 107.2c-19.168 17.6-53.76 16.576-53.76-22.88v-71.552c-245.024-2.112-446.816-207.264-446.816-459.264 0-253.312 199.904-459.392 448-459.392s448 206.048 448 459.392c0 0.16 0 0.32 0 0.48 0 0 0 46.912-41.344 46.912-38.848 0-40.32-46.912-40.32-46.912z" />
<glyph unicode="&#xe911;" glyph-name="repayment" d="M924.736 386.624l67.84-67.84-158.080-158.080 158.080-158.080-67.84-67.84-158.080 158.080-158.080-158.080-67.84 67.84 158.080 158.080-158.080 158.080 67.84 67.84 158.080-158.080 158.080 158.080zM616.768 942.464l269.952-228.032v-266.432h-96l-0.064 140.864h-241.088v257.6h-308.736v-715.008h271.168v-96h-367.168v907.008h471.936zM645.568 792.448v-107.584h127.36l-127.36 107.584z" />
<glyph unicode="&#xe912;" glyph-name="search" d="M732.992 314.848l291.008-291.008-87.84-87.84-291.008 291.008v46.656l-16.48 16.48c-71.392-60.384-153.728-90.592-247.072-90.592-106.144 0-196.288 37.056-270.4 111.2s-111.2 163.808-111.2 269.056c0 105.248 37.056 194.912 111.2 269.056s163.808 111.2 269.056 111.2c105.248 0 194.912-37.056 269.056-111.2s111.2-164.256 111.2-270.4c0-93.344-30.208-175.712-90.592-247.072l16.48-16.48h46.656zM381.6 314.848c73.216 0 135.424 25.632 186.688 76.864s76.864 113.472 76.864 186.688c0 73.216-25.632 135.424-76.864 186.688s-113.472 76.864-186.688 76.864c-73.216 0-135.424-25.632-186.688-76.864s-76.864-113.472-76.864-186.688c0-73.216 25.632-135.424 76.864-186.688s113.472-76.864 186.688-76.864z" />
<glyph unicode="&#xe913;" glyph-name="send" d="M0.48 18.272l1023.52 438.848-1023.52 438.848-0.48-341.344 731.424-97.536-731.424-97.536z" />
<glyph unicode="&#xe914;" glyph-name="settings-copy" d="M512 960c-282.784 0-512-229.216-512-512s229.216-512 512-512c282.784 0 512 229.216 512 512 0 135.776-53.952 266.016-149.952 362.048s-226.24 149.952-362.048 149.952zM640 228.576h-164.576c-20.192 0-36.576 16.384-36.576 36.576s16.384 36.576 36.576 36.576h164.576c50.496 0 91.424 40.928 91.424 91.424s-40.928 91.424-91.424 91.424h-295.872l47.168-47.168c10.432-8.928 14.976-22.976 11.776-36.32s-13.632-23.776-27.008-27.008c-13.376-3.2-27.392 1.344-36.32 11.776l-109.728 109.728c-6.912 6.88-10.816 16.224-10.816 25.952s3.904 19.104 10.816 25.952l109.728 109.728c14.496 12.416 36.128 11.584 49.664-1.92s14.336-35.136 1.92-49.664l-47.168-47.904h295.872c90.88 0 164.576-73.696 164.576-164.576s-73.696-164.576-164.576-164.576v0z" />
<glyph unicode="&#xe915;" glyph-name="settings" d="M902.24 397.536l110.784-84.128c11.488-9.6 13.952-20.832 7.392-33.664l-105.856-177.888c-6.56-12.832-17.248-16.032-32-9.6l-130.496 50.464c-29.536-20.832-59.104-37.664-88.64-50.464l-19.712-134.624c-1.632-14.432-10.656-21.632-27.072-21.632h-209.28c-14.784 0-23.808 7.2-27.072 21.632l-19.712 134.624c-31.2 12.832-60.736 29.632-88.64 50.464l-130.496-50.464c-14.784-4.8-25.44-1.6-32 9.6l-105.856 177.888c-6.56 12.832-4.096 24.032 7.392 33.664l110.784 84.128c-1.632 19.232-2.464 36.064-2.464 50.464s0.832 31.264 2.464 50.464l-110.784 84.128c-11.488 9.6-13.952 20.832-7.392 33.664l105.856 177.888c8.192 12.832 18.88 16.032 32 9.6l130.496-50.464c29.536 20.832 59.104 37.664 88.64 50.464l19.712 134.624c3.296 14.432 12.32 21.632 27.072 21.632h209.28c16.416 0 25.44-7.2 27.072-21.632l19.712-134.624c31.2-12.832 60.736-29.632 88.64-50.464l130.496 50.464c14.784 4.8 25.44 1.6 32-9.6l105.856-177.888c6.56-12.832 4.096-24.032-7.392-33.664l-110.784-84.128c3.296-19.232 4.928-36.064 4.928-50.464s-1.632-31.264-4.928-50.464zM512 256c52.416 0 97.504 18.784 135.296 56.32s56.704 82.784 56.704 135.68c0 52.896-18.912 98.144-56.704 135.68s-82.912 56.32-135.296 56.32c-52.416 0-97.504-18.784-135.296-56.32s-56.704-82.784-56.704-135.68c0-52.896 18.912-98.144 56.704-135.68s82.912-56.32 135.296-56.32z" />
<glyph unicode="&#xe916;" glyph-name="warning" d="M565.984 882.656l9.024-5.536c14.56-9.888 26.624-23.136 35.136-38.624l361.088-656.544c29.824-54.208 10.048-122.304-44.16-152.096-16.544-9.088-35.104-13.856-53.984-13.856h-722.176c-61.856 0-112 50.144-112 112 0 18.88 4.768 37.44 13.856 53.984l361.088 656.544c28.256 51.36 90.848 71.808 143.456 48.448l8.672-4.288zM519.712 798.56c-7.744 4.256-17.472 1.44-21.728-6.304l-361.088-656.544c-1.312-2.368-1.984-5.024-1.984-7.712 0-8.832 7.168-16 16-16h722.176c2.688 0 5.344 0.672 7.712 1.984 7.744 4.256 10.56 13.984 6.304 21.728l-361.088 656.544c-1.472 2.656-3.648 4.832-6.304 6.304zM464 576v-192c0-26.496 21.504-48 48-48s48 21.504 48 48v192c0 26.496-21.504 48-48 48s-48-21.504-48-48zM576 234.656c0-35.36-28.64-64-64-64s-64 28.64-64 64c0 35.36 28.64 64 64 64s64-28.64 64-64z" />
</font>
</defs>
</svg>
